Coordinates
version=1
nRows=54
nColumns=12
inDegrees=yes

Units are S.I. units (second, meters, Newtons, ...)
Angles are in degrees

endheader
time	SC_y	SC_z	SC_x	AC_y	AC_z	AC_x	GH_y	GH_z	GH_yy	EL_x	PS_y
       0.0              -53.72          8.895          9.617          44.95          2.245          1.338          164.6           11.9         -125.3          78.28          43.42
    0.0363              -53.71          8.894          9.619          44.95          2.244          1.341          164.6          11.91         -125.3          78.27          43.42
    0.0726              -53.71          8.893           9.62          44.94          2.244          1.343          164.5          11.92         -125.3          78.26          43.41
    0.1089              -53.71          8.892          9.622          44.94          2.243          1.346          164.5          11.92         -125.2          78.25          43.41
    0.1452              -53.71          8.891          9.623          44.94          2.242          1.348          164.4          11.93         -125.2          78.24           43.4
    0.1815               -53.7           8.89          9.625          44.94          2.242          1.351          164.4          11.94         -125.1          78.23          43.39
    0.2178               -53.7          8.889          9.627          44.94          2.241          1.354          164.3          11.95         -125.1          78.22          43.39
    0.2541               -53.7          8.888          9.628          44.93           2.24          1.357          164.3          11.96         -125.0          78.21          43.38
    0.2904               -53.7          8.886          9.631          44.93          2.239          1.361          164.2          11.97         -125.0          78.19          43.37
    0.3267              -53.69          8.885          9.633          44.93          2.238          1.365          164.1          11.98         -124.9          78.18          43.37
     0.363              -53.69          8.883          9.635          44.93          2.237          1.369          164.1          11.99         -124.8          78.16          43.36
    0.3993              -53.69          8.882          9.638          44.92          2.236          1.373          164.0           12.0         -124.8          78.15          43.35
    0.4356              -53.68           8.88           9.64          44.92          2.235          1.378          163.9          12.01         -124.7          78.13          43.34
    0.4719              -53.68          8.878          9.643          44.92          2.234          1.383          163.8          12.03         -124.6          78.11          43.33
    0.5082              -53.67          8.876          9.646          44.91          2.233          1.388          163.7          12.04         -124.5          78.09          43.32
    0.5445              -53.67          8.873           9.65          44.91          2.231          1.394          163.6          12.06         -124.4          78.07           43.3
    0.5808              -53.66          8.871          9.654           44.9          2.229          1.401          163.5          12.08         -124.3          78.04          43.29
    0.6171              -53.65          8.868          9.658           44.9          2.228          1.408          163.4           12.1         -124.2          78.01          43.27
    0.6534              -53.65          8.865          9.662          44.89          2.226          1.415          163.2          12.12         -124.1          77.99          43.26
    0.6897              -53.64          8.862          9.667          44.89          2.224          1.424          163.1          12.14         -123.9          77.95          43.24
     0.726              -53.63          8.858          9.672          44.88          2.221          1.433          162.9          12.17         -123.8          77.92          43.22
    0.7623              -53.62          8.854          9.678          44.87          2.219          1.443          162.7          12.19         -123.6          77.88           43.2
    0.7986              -53.61           8.85          9.685          44.87          2.216          1.454          162.5          12.23         -123.4          77.84          43.18
    0.8348               -53.6          8.845          9.692          44.86          2.213          1.467          162.3          12.26         -123.2          77.79          43.15
    0.8711              -53.59           8.84            9.7          44.85           2.21           1.48          162.1           12.3         -123.0          77.74          43.12
    0.9074              -53.57          8.834          9.709          44.84          2.206          1.496          161.8          12.34         -122.8          77.68          43.09
    0.9437              -53.56          8.827          9.719          44.82          2.201          1.513          161.5          12.39         -122.5          77.61          43.05
      0.98              -53.54           8.82           9.73          44.81          2.197          1.532          161.1          12.44         -122.2          77.54          43.01
     1.016              -53.52          8.811          9.743           44.8          2.191          1.554          160.7           12.5         -121.8          77.45          42.96
     1.053               -53.5          8.801          9.758          44.78          2.185          1.579          160.3          12.57         -121.4          77.36          42.91
     1.089              -53.47           8.79          9.774          44.76          2.178          1.607          159.8          12.65         -120.9          77.25          42.85
     1.125              -53.44          8.778          9.793          44.74           2.17           1.64          159.2          12.74         -120.4          77.13          42.78
     1.162              -53.41          8.763          9.815          44.71           2.16          1.678          158.5          12.85         -119.8          76.98           42.7
     1.198              -53.37          8.746           9.84          44.68           2.15          1.721          157.8          12.97         -119.1          76.82          42.61
     1.234              -53.32          8.726           9.87          44.64          2.137          1.772          156.9          13.11         -118.2          76.62           42.5
      1.27              -53.27          8.703          9.905           44.6          2.122          1.833          155.8          13.28         -117.2          76.39          42.38
     1.307               -53.2          8.675          9.947          44.55          2.104          1.904          154.5          13.48         -116.1          76.12          42.22
     1.343              -53.12          8.641          9.997          44.49          2.083           1.99          153.0          13.71         -114.7          75.79          42.04
     1.379              -53.03          8.601          10.06          44.42          2.057          2.094          151.1           14.0         -113.0          75.39          41.82
     1.416              -52.91          8.551          10.13          44.33          2.025          2.221          148.9          14.35         -110.9           74.9          41.55
     1.452              -52.77           8.49          10.22          44.22          1.986          2.377          146.1          14.79         -108.3          74.31          41.22
     1.488               -52.6          8.414          10.34          44.09          1.937          2.573          142.6          15.33         -105.1          73.56          40.81
     1.525              -52.37          8.319          10.48          43.91          1.876          2.819          138.2          16.01         -101.1          72.62          40.29
     1.561              -52.09          8.197          10.66           43.7          1.798          3.131          132.6          16.88         -95.96          71.42          39.63
     1.597              -51.72          8.041           10.9          43.42          1.699          3.532          125.5          17.99          -89.4          69.89          38.78
     1.633              -51.26          7.841          11.19          43.06          1.571          4.045          116.4          19.42         -80.98          67.93           37.7
      1.67              -50.66          7.585          11.58           42.6          1.407          4.701          104.7          21.24         -70.23          65.42          36.31
     1.706              -49.91          7.264          12.06          42.02          1.202          5.526          89.98          23.53         -56.72          62.26          34.56
     1.742               -49.0          6.872          12.64          41.32         0.9511          6.532          72.07          26.32         -40.24          58.42          32.44
     1.779              -47.94          6.418          13.32          40.51         0.6608          7.697          51.31          29.55         -21.15          53.96          29.97
     1.815              -46.79          5.927          14.06          39.63         0.3465          8.958          28.83          33.05        -0.4767          49.14           27.3
     1.851              -45.65          5.436          14.79          38.75        0.03213          10.22           6.35          36.55           20.2          44.32          24.63
     1.887              -44.59          4.982          15.47          37.93        -0.2582          11.39         -14.41          39.79          39.29          39.86          22.17
     1.924              -43.67           4.59          16.06          37.23        -0.5086          12.39         -32.32          42.58          55.76          36.02          20.04
